PathFileType	4	(X/Y/Z)	C:\Users\ebm\Documents\Erivelton\Erivelton2\wc9.trc
DataRate	CameraRate	NumFrames	NumMarkers	Units	OrigDataRate	OrigDataStartFrame	OrigNumFrames
150.00	150.00	      5	28	mm	150.00	970	      1293
Frame#	Time	IJ			PX			C7			T8			RAC			RAS			RPS			RAI			RPI			RLE			RME			RRS			RUS			R3M			R5M			LAC			LAS			LPS			LAI			LPI			LLE			LME			LRS			LUS			L3M			L5M			RW			LW			V_mid_elbow_r			V_mid_elbow_l			V_mid_wrist_r			V_mid_wrist_l			V_mid_trunk_low			V_mid_trunk_upp			
		X1	Y1	Z1	X2	Y2	Z2	X3	Y3	Z3	X4	Y4	Z4	X5	Y5	Z5	X6	Y6	Z6	X7	Y7	Z7	X8	Y8	Z8	X9	Y9	Z9	X10	Y10	Z10	X11	Y11	Z11	X12	Y12	Z12	X13	Y13	Z13	X14	Y14	Z14	X15	Y15	Z15	X16	Y16	Z16	X17	Y17	Z17	X18	Y18	Z18	X19	Y19	Z19	X20	Y20	Z20	X21	Y21	Z21	X22	Y22	Z22	X23	Y23	Z23	X24	Y24	Z24	X25	Y25	Z25	X26	Y26	Z26	X27	Y27	Z27	X28	Y28	Z28	

970	6.460	2775.40405	1032.89465	362.77200	2786.18799	867.21997	352.09320	2666.01123	1145.71692	329.42813	2580.33667	990.54022	302.91562	2658.50928	1051.82471	536.96960	2740.35107	866.06689	541.26886	2696.50171	846.40912	553.72711	2777.43896	797.52234	534.76947	2730.67505	773.83911	548.33234	2773.63013	719.31079	532.82007	2744.81372	712.11975	460.31693	3018.08838	743.46515	401.89264	3016.20459	716.86444	459.71539	3100.97266	711.60303	421.08408	3085.50415	697.11127	454.61172	2743.22290	1106.59448	163.86963	2807.72998	960.95673	73.31086	2764.88794	942.41193	59.08245	2850.52759	894.75800	53.68893	2803.71851	871.08032	37.30182	2886.51733	813.95819	32.29575	2829.73486	770.63080	61.25706	3053.94116	728.98871	226.34599	3075.17139	701.64050	169.71637	3140.55493	695.99170	213.30499	3123.37329	678.20038	178.48407	2661.24829	301.06848	627.81860	2755.95850	302.75858	5.23735	
971	6.467	2781.96851	1032.96643	363.97791	2792.47949	867.20966	353.26672	2672.56372	1145.89368	330.55609	2586.84595	990.64124	303.85535	2664.74756	1051.76331	538.00214	2746.71826	866.01788	542.11041	2702.78711	846.39911	554.66888	2783.77661	797.49652	535.60095	2736.95923	773.89996	549.26996	2779.95874	719.38007	533.70135	2751.03394	712.31537	461.36014	3024.64746	743.55408	403.02646	3022.65161	716.87799	460.81689	3107.38062	711.52191	422.21652	3091.93628	697.09021	455.78442	2750.15503	1106.76172	165.08702	2814.45923	961.16125	74.46852	2771.54175	942.72974	60.20561	2857.16138	894.97821	54.82516	2810.38940	871.31293	38.41340	2893.10962	814.11096	33.30237	2836.14355	770.85944	62.23052	3060.38965	729.02405	227.46190	3081.49146	701.60590	170.76952	3146.95166	695.97394	214.42180	3129.63647	678.24609	179.50232	2667.43896	301.16766	628.82330	2762.43677	302.74573	6.21778	
972	6.473	2788.43750	1032.96338	365.19119	2799.04590	867.38599	354.37863	2679.10693	1145.97876	331.66104	2593.25366	990.79175	304.81879	2670.86548	1051.75195	539.05566	2753.01904	866.06055	543.20251	2709.04858	846.44550	555.64148	2790.05859	797.70306	536.65039	2743.31226	773.97449	550.21930	2786.32788	719.56134	534.66522	2757.62427	712.37531	462.20422	3031.08057	743.56378	404.11850	3029.09058	716.91278	461.96017	3113.91479	711.47162	423.31033	3098.57153	696.98267	456.88327	2756.84326	1106.97217	166.34013	2821.09351	961.42474	75.60913	2778.18115	942.99530	61.28587	2863.88037	895.17621	55.94712	2816.89209	871.58960	39.42150	2899.58252	814.35461	34.31564	2842.71655	771.04517	63.24190	3066.88892	729.00348	228.47389	3087.86255	701.58661	171.94081	3153.48364	695.96088	215.50508	3136.19873	678.22461	180.79962	2674.22168	301.15567	629.40741	2768.87451	302.73853	7.19980	
973	6.480	2794.77979	1032.95544	366.35681	2805.57446	867.44025	355.46973	2685.77148	1146.08740	332.83075	2599.82373	990.89935	305.73474	2677.11890	1051.79248	540.00525	2759.23462	866.21680	544.25970	2715.38037	846.46857	556.59875	2796.44336	797.72601	537.57373	2749.64624	774.02625	551.10291	2792.64355	719.61975	535.54785	2763.93677	712.51007	463.05713	3037.49927	743.54828	405.24646	3035.39404	716.87744	463.05536	3120.28271	711.41132	424.16284	3105.00342	696.93701	457.99310	2763.57324	1107.21851	167.54251	2827.75122	961.66852	76.81452	2784.74268	943.31989	62.37738	2870.34473	895.40918	56.99580	2823.53198	871.82715	40.54629	2906.18994	814.53711	35.54967	2849.18506	771.33026	64.23824	3073.24854	728.99799	229.59259	3094.31128	701.62463	173.00145	3159.72119	695.86334	216.56320	3142.60034	678.24109	181.83223	2680.21338	301.27795	630.60260	2775.31860	302.78656	8.14285	
974	6.487				2812.09204	867.58301	356.37109	2692.32959	1146.17200	333.93228	2606.18286	990.99231	306.69031	2683.27856	1051.73608	541.01868	2765.44873	866.29669	545.26563	2721.69214	846.48132	557.59296	2802.68945	797.83997	538.54883	2756.00146	774.04230	552.01886	2799.00464	719.69159	536.39868	2770.37012	712.60791	463.85898	3044.01392	743.62732	406.36975	3041.78296	716.84668	464.05508	3126.46094	711.44208	425.63657	3111.37866	696.93549	459.16876	2770.10669	1107.45935	168.82481	2834.37207	961.91382	77.92531	2791.40356	943.55072	63.48484	2876.97119	895.61688	58.15879	2830.18237	872.12537	41.66646	2912.64893	814.76324	36.56277	2855.70142	771.51874	65.23418	3079.68994	729.00598	230.65065	3100.75806	701.60431	174.00905	3166.25439	695.83374	217.69470	3148.88184	678.07404	182.83675	2686.02539	301.43314	631.66400	2781.85449	302.78668	9.14462	
